<?xml version="1.0" encoding="UTF-8" standalone="no"?>
<svg
   xmlns:dc="http://purl.org/dc/elements/1.1/"
   xmlns:cc="http://creativecommons.org/ns#"
   xmlns:rdf="http://www.w3.org/1999/02/22-rdf-syntax-ns#"
   xmlns:svg="http://www.w3.org/2000/svg"
   xmlns="http://www.w3.org/2000/svg"
   xmlns:sodipodi="http://sodipodi.sourceforge.net/DTD/sodipodi-0.dtd"
   xmlns:inkscape="http://www.inkscape.org/namespaces/inkscape"
   inkscape:version="1.0 (4035a4fb49, 2020-05-01)"
   sodipodi:docname="Webgen logo.svg"
   viewBox="0 0 130.53125 129.01967"
   height="129.01967"
   width="130.53125"
   id="svg40"
   version="1.1">
  <metadata
     id="metadata46">
    <rdf:RDF>
      <cc:Work
         rdf:about="">
        <dc:format>image/svg+xml</dc:format>
        <dc:type
           rdf:resource="http://purl.org/dc/dcmitype/StillImage" />
        <dc:title></dc:title>
      </cc:Work>
    </rdf:RDF>
  </metadata>
  <defs
     id="defs44">
    <inkscape:path-effect
       only_selected="false"
       apply_with_weight="true"
       apply_no_weight="true"
       helper_size="0"
       steps="2"
       weight="33.333333"
       lpeversion="1"
       is_visible="true"
       id="path-effect943"
       effect="bspline" />
    <inkscape:path-effect
       only_selected="false"
       apply_with_weight="true"
       apply_no_weight="true"
       helper_size="0"
       steps="2"
       weight="33.333333"
       lpeversion="1"
       is_visible="true"
       id="path-effect939"
       effect="bspline" />
    <inkscape:path-effect
       only_selected="false"
       apply_with_weight="true"
       apply_no_weight="true"
       helper_size="0"
       steps="2"
       weight="33.333333"
       lpeversion="1"
       is_visible="true"
       id="path-effect935"
       effect="bspline" />
    <inkscape:path-effect
       only_selected="false"
       apply_with_weight="true"
       apply_no_weight="true"
       helper_size="0"
       steps="2"
       weight="33.333333"
       lpeversion="1"
       is_visible="true"
       id="path-effect931"
       effect="bspline" />
    <inkscape:path-effect
       only_selected="false"
       apply_with_weight="true"
       apply_no_weight="true"
       helper_size="0"
       steps="2"
       weight="33.333333"
       lpeversion="1"
       is_visible="true"
       id="path-effect927"
       effect="bspline" />
    <inkscape:path-effect
       only_selected="false"
       apply_with_weight="true"
       apply_no_weight="true"
       helper_size="0"
       steps="2"
       weight="33.333333"
       lpeversion="1"
       is_visible="true"
       id="path-effect922"
       effect="bspline" />
    <inkscape:path-effect
       only_selected="false"
       apply_with_weight="true"
       apply_no_weight="true"
       helper_size="0"
       steps="2"
       weight="33.333333"
       lpeversion="1"
       is_visible="true"
       id="path-effect917"
       effect="bspline" />
    <inkscape:path-effect
       only_selected="false"
       apply_with_weight="true"
       apply_no_weight="true"
       helper_size="0"
       steps="2"
       weight="33.333333"
       lpeversion="1"
       is_visible="true"
       id="path-effect912"
       effect="bspline" />
    <inkscape:path-effect
       only_selected="false"
       apply_with_weight="true"
       apply_no_weight="true"
       helper_size="0"
       steps="2"
       weight="33.333333"
       lpeversion="1"
       is_visible="true"
       id="path-effect907"
       effect="bspline" />
    <inkscape:path-effect
       effect="bspline"
       id="path-effect899"
       is_visible="true"
       lpeversion="1"
       weight="33.333333"
       steps="2"
       helper_size="0"
       apply_no_weight="true"
       apply_with_weight="true"
       only_selected="false" />
    <inkscape:path-effect
       only_selected="false"
       apply_with_weight="true"
       apply_no_weight="true"
       helper_size="0"
       steps="2"
       weight="33.333333"
       lpeversion="1"
       is_visible="true"
       id="path-effect895"
       effect="bspline" />
  </defs>
  <sodipodi:namedview
     fit-margin-bottom="0"
     fit-margin-right="0"
     fit-margin-left="0"
     fit-margin-top="0"
     inkscape:snap-nodes="false"
     inkscape:current-layer="g48"
     inkscape:window-maximized="1"
     inkscape:window-y="-8"
     inkscape:window-x="-8"
     inkscape:cy="59.102777"
     inkscape:cx="84.321351"
     inkscape:zoom="2.37"
     showgrid="false"
     id="namedview42"
     inkscape:window-height="705"
     inkscape:window-width="1366"
     inkscape:pageshadow="2"
     inkscape:pageopacity="0"
     guidetolerance="10"
     gridtolerance="10"
     objecttolerance="10"
     borderopacity="1"
     bordercolor="#666666"
     pagecolor="#ffffff" />
  <g
     transform="translate(8.2521683,-59.63101)"
     id="g48"
     inkscape:label="Image"
     inkscape:groupmode="layer">
    <g
       transform="translate(-55.312715,37.990584)"
       id="g959">
      <path
         id="path68"
         style="fill:#ffffff;fill-opacity:1;stroke:none;stroke-width:4.70634;stroke-linecap:round;stroke-dasharray:9.41268, 9.41268;stroke-opacity:0.545723"
         d="M 112.04297,21.640625 A 65.265915,64.40715 0 0 0 74.267578,33.722656 c 0.943621,0.242161 1.836632,0.328906 2.996094,0.271485 2.527265,-0.125161 6.460372,-0.92433 9.80664,-1.777344 3.346272,-0.853015 6.167265,-1.771634 9.021485,-2.755859 2.85422,-0.984226 5.742563,-2.033729 8.039063,-2.886719 2.2965,-0.852991 4.00201,-1.509953 5.44531,-2.330078 1.20352,-0.68387 2.21812,-1.499467 3.13281,-2.601563 a 65.265915,64.40715 0 0 0 -0.38281,-0.002 65.265915,64.40715 0 0 0 -0.2832,0 z m 16.69922,2.070313 c -0.28796,0.02509 -0.60558,0.04771 -0.89258,0.07227 -2.65754,0.227387 -5.5447,0.427544 -10.07227,1.378906 -4.52756,0.951362 -10.76054,2.658073 -16.00976,4.265625 -5.249231,1.607552 -9.514377,3.115858 -13.943361,4.625 -4.428984,1.509143 -9.020332,3.018473 -12.878907,4.521485 -3.85857,1.503012 -7.034095,3.025696 -9.677734,4.363281 -0.958799,0.485117 -1.809917,0.939816 -2.671875,1.398438 a 65.265915,64.40715 0 0 0 -10.753906,17.50976 c 2.203534,0.933558 3.383049,0.974603 6.613281,0.443359 4.179164,-0.687305 11.850231,-2.290983 19.121094,-4.123046 7.270862,-1.832064 14.140364,-3.893322 21.851562,-6.40625 7.711196,-2.512927 16.333376,-5.501323 23.718746,-8.306641 7.38537,-2.805318 13.56908,-5.438063 17.91993,-7.957031 2.31233,-1.338749 4.10336,-2.65208 5.76757,-4.115235 a 65.265915,64.40715 0 0 0 -18.08984,-7.669921 z m 30.25195,17.3125 c -1.60689,0.122281 -3.40218,0.35659 -5.56055,0.654296 -3.3206,0.458011 -7.44407,1.030902 -13.22656,2.347657 -5.78249,1.316754 -13.2238,3.377303 -21.35351,5.724609 -8.12972,2.347305 -16.94633,4.981677 -24.904301,7.615234 -7.957977,2.633556 -15.057425,5.266829 -21.75586,7.900391 -6.698436,2.633562 -12.9957,5.267051 -17.232421,7.328125 -3.018583,1.468475 -5.062513,2.688137 -7.189454,3.96875 a 65.265915,64.40715 0 0 0 -0.710937,9.486328 65.265915,64.40715 0 0 0 1.210937,12.335938 c 2.192155,0.184084 4.105448,0.0034 7.371094,-0.521485 5.511549,-0.885906 14.892663,-2.722001 23.873047,-4.884765 8.980384,-2.162764 17.593447,-4.661304 25.499995,-7.023438 7.90659,-2.362134 15.12494,-4.594497 21.91602,-6.923828 6.79108,-2.329331 13.15572,-4.756664 19.42188,-7.414062 6.26615,-2.6574 12.43363,-5.544159 16.79687,-7.90625 3.69395,-1.999765 6.08,-3.615347 8.22266,-5.101563 A 65.265915,64.40715 0 0 0 158.99414,41.023438 Z m 14.88477,33.777343 c -1.96731,-0.06617 -5.64389,0.06511 -12.56641,1.410157 -6.92252,1.345044 -17.09157,3.903897 -25.81836,6.298828 -8.72679,2.39493 -16.01013,4.626545 -23.49023,7.021484 -7.48011,2.394939 -15.156083,4.952721 -21.783207,7.347656 -6.627124,2.394935 -12.204218,4.626864 -16.830078,6.562504 -4.62586,1.93563 -8.301131,3.57559 -11.089844,4.98632 -2.788713,1.41074 -4.690351,2.59096 -6.115234,3.5918 -0.882805,0.62009 -1.703402,1.26936 -2.636719,2.02344 a 65.265915,64.40715 0 0 0 12.15625,17.07617 c 1.208286,-0.0569 2.392822,-0.14731 3.583984,-0.25195 4.855447,-0.42654 9.907099,-1.08343 17.419922,-2.82227 7.512823,-1.73884 17.486486,-4.55872 28.345706,-7.9707 10.85922,-3.41198 22.60472,-7.41581 32.41406,-11.12305 9.80934,-3.70723 17.68296,-7.11799 22.47266,-9.447264 3.52339,-1.71346 5.37627,-2.844441 7.01171,-4.457031 a 65.265915,64.40715 0 0 0 0.63868,-8.998047 65.265915,64.40715 0 0 0 -0.86524,-10.453125 c -0.97852,-0.578738 -1.58375,-0.752409 -2.84765,-0.794922 z m -4.29883,35.759769 c -1.47648,-0.0661 -3.83712,0.19657 -6.69141,0.62304 -2.85428,0.42648 -6.20162,1.01694 -9.48242,1.77149 -3.2808,0.75454 -6.49535,1.67328 -11.94141,3.24804 -5.44605,1.57478 -13.12205,3.80399 -20.58398,6.25782 -7.46193,2.45382 -14.78171,5.15854 -20.32617,7.29101 -5.544466,2.13248 -9.349976,3.70613 -12.583987,5.24024 -3.234011,1.5341 -5.953271,3.05949 -7.921875,4.4375 -0.714913,0.50043 -1.3209,0.98911 -1.90039,1.48633 a 65.265915,64.40715 0 0 0 18.59375,7.67382 c 2.456299,-0.0361 4.551472,-0.0647 7.617192,-0.56445 4.42881,-0.72192 10.85885,-2.42724 17.28906,-4.33008 6.43021,-1.90284 12.86023,-4.00223 17.94531,-5.80664 5.08508,-1.80441 8.8252,-3.31352 12.30273,-4.85547 2.78318,-1.23406 5.45145,-2.50712 9.10938,-4.08593 a 65.265915,64.40715 0 0 0 11.20312,-17.28711 c -0.99769,-0.82925 -1.62371,-1.05465 -2.6289,-1.09961 z m -21.28125,27.69922 c -0.3972,-0.0153 -0.85539,0.008 -1.42188,0.0801 -2.26596,0.28678 -6.39668,1.35306 -11.55078,2.91797 -5.1541,1.56491 -11.51098,3.68422 -15.51367,5.35742 -3.90344,1.63172 -5.61469,2.85492 -6.27539,3.82813 a 65.265915,64.40715 0 0 0 36.4707,-11.80664 c -0.53024,-0.19809 -1.02999,-0.35087 -1.70898,-0.37695 z" />
      <g
         id="g950"
         style="fill:#000000;fill-opacity:0.117647;stroke:none">
        <path
           inkscape:original-d="m 51.841797,61.845703 c 3.848152,-2.307891 7.695305,-4.616782 11.541457,-6.926672 7.481161,-2.689234 14.961023,-5.37936 22.440034,-8.070539 7.218699,-2.295541 14.436112,-4.591989 21.652662,-6.889484 7.2187,-2.098694 14.43611,-4.198305 21.65267,-6.298957 4.65969,-0.72077 9.44943,-1.442511 14.17265,-2.165266 1.17859,-0.03698 2.35614,-0.07495 3.53271,-0.113926 -0.71729,0.5639 -1.43554,1.126777 -2.15481,1.688665 -2.82047,1.57577 -5.64182,3.150478 -8.46423,4.724217 -4.78892,2.16631 -9.57866,4.331533 -14.36949,6.4958 -9.11955,3.01931 -18.23973,6.0375 -27.361096,9.05475 -8.200931,2.16631 -16.402534,4.331533 -24.605301,6.4958 -3.279772,0.72277 -6.691642,1.444511 -10.038962,2.165266 -1.836233,0.263462 -3.673392,0.525913 -5.511588,0.78737 -0.195846,-0.06462 -1.656804,-0.630349 -2.486706,-0.947024 0,0 10e-4,10e-4 0,0"
           inkscape:path-effect="#path-effect927"
           id="path925"
           d="m 51.841797,61.845703 c 3.847446,-2.309067 7.694599,-4.617958 13.358392,-7.117534 5.663793,-2.499575 13.143655,-5.189701 20.492536,-7.683058 7.348881,-2.493357 14.566295,-4.789806 21.783935,-6.987897 7.21764,-2.19809 14.43505,-4.2977 20.37401,-5.703481 5.93896,-1.405781 10.72721,-2.137319 13.67818,-2.517137 2.95098,-0.379818 4.12853,-0.417793 4.35775,-0.155366 0.22923,0.262426 -0.48903,0.825301 -2.25879,1.894089 -1.76977,1.068789 -4.59112,2.643495 -8.39673,4.51351 -3.80561,1.870014 -8.59534,4.03524 -15.55046,6.627032 -6.95512,2.591791 -16.0753,5.60998 -24.736403,8.201769 -8.661106,2.591789 -16.862709,4.757013 -22.605406,6.193779 -5.742697,1.436767 -9.151651,2.172031 -11.743382,2.664161 -2.591731,0.492129 -4.42889,0.75458 -5.444174,0.849207 -1.015284,0.09463 -2.47935,-0.46294 -3.309458,-0.779074 0,0 0,0 0,0"
           style="fill:#000000;fill-opacity:0.117647;stroke:none;stroke-width:1px;stroke-linecap:butt;stroke-linejoin:miter;stroke-opacity:1" />
        <path
           inkscape:original-d="m 48.816916,96.452778 c 5.315745,-3.082865 10.63049,-6.166729 15.944235,-9.251593 10.630702,-3.739081 21.259979,-7.479012 31.888469,-11.220017 12.59917,-3.870312 25.19683,-7.741468 37.79374,-11.613702 9.18716,-2.295541 18.50419,-4.460761 27.75478,-6.692642 2.42877,-0.06462 4.85645,-0.130228 7.28317,-0.196842 0.39469,0.197846 0.78837,0.394685 1.18105,0.590527 -0.26146,0.460308 -0.52391,0.919598 -0.78737,1.377897 -3.73908,2.16631 -7.47901,4.331533 -11.22001,6.495799 -7.80724,3.281772 -15.61517,6.562414 -23.42425,9.84212 -9.90693,3.347388 -19.81447,6.693642 -29.7232,10.038963 -7.544778,2.100694 -15.090253,4.200304 -22.636878,6.298957 -9.316394,1.903848 -18.633414,3.80662 -27.951621,5.708429 -2.16431,0.197847 -4.329533,0.394685 -6.4958,0.590528 -0.261462,-0.392693 -0.523913,-0.78637 -0.787369,-1.181055 0.394692,-0.261462 0.788369,-0.523913 1.181054,-0.787369 z"
           inkscape:path-effect="#path-effect931"
           id="path929"
           d="m 51.277719,95.041906 c 2.854256,-1.673175 8.169001,-4.757039 16.141356,-8.169022 7.972355,-3.411982 18.601632,-7.151913 30.21549,-10.957568 11.613855,-3.805655 24.211515,-7.676811 35.112875,-10.722206 10.90136,-3.045394 20.19983,-5.287579 26.03963,-6.435753 5.83981,-1.148175 8.26749,-1.213787 9.67831,-1.147858 1.41082,0.06593 1.8045,0.262769 1.86942,0.590705 0.0649,0.327935 -0.19754,0.787225 -2.19856,2.099277 -2.00101,1.312053 -5.74094,3.477277 -11.51498,6.200283 -5.77403,2.723006 -13.58196,6.003649 -22.43991,9.317198 -8.85796,3.31355 -18.7655,6.659805 -27.49221,9.38282 -8.726718,2.723014 -16.272193,4.822624 -24.703655,6.82389 -8.431463,2.001265 -17.748483,3.904036 -23.489673,4.953901 -5.741189,1.049866 -7.906412,1.246704 -9.120343,1.148897 -1.213931,-0.09781 -1.476382,-0.491484 -1.411033,-0.820211 0.06535,-0.328727 0.459026,-0.591178 3.313283,-2.264353 z"
           style="fill:#000000;fill-opacity:0.117647;stroke:none;stroke-width:1px;stroke-linecap:butt;stroke-linejoin:miter;stroke-opacity:1" />
        <path
           inkscape:original-d="m 86.02013,118.49913 c 12.598914,-4.46076 25.19683,-8.92253 37.79374,-13.38529 9.25278,-2.62361 18.50419,-5.248127 27.75478,-7.873693 6.43131,-0.983231 12.9926,-1.967424 19.4874,-2.952636 1.707,-0.06461 3.41293,-0.130228 5.1179,-0.196842 0.13223,0.460308 0.26346,1.050826 0.39369,1.574739 -2.9517,1.641386 -5.90428,3.281707 -8.85791,4.921062 -7.74163,3.08492 -15.48394,6.16873 -23.22741,9.25159 -6.69177,2.36316 -13.38428,4.72522 -20.07792,7.08633 -4.6577,1.51015 -9.31621,3.15048 -13.97581,4.72422 -7.80724,1.96946 -15.615166,3.93784 -23.424248,5.90527 -4.46085,0.98523 -9.05375,1.96942 -13.582126,2.95263 -2.754848,0.19785 -5.641815,0.39469 -8.464223,0.59053 -0.195846,-0.39269 -0.392685,-0.9176 -0.590527,-1.3779 5.447082,-2.88608 10.892946,-5.77304 16.337919,-8.66106 1.772617,-0.852 3.544164,-1.70497 5.314745,-2.55895 z"
           inkscape:path-effect="#path-effect935"
           id="path933"
           d="m 91.433794,116.69454 c 7.184823,-2.65738 19.782736,-7.11914 30.707626,-10.66232 10.92489,-3.54318 20.1763,-6.167697 28.01807,-7.967204 7.84177,-1.799507 14.40159,-2.793419 18.50255,-3.318288 4.10097,-0.524869 5.8069,-0.590482 6.71745,-0.391099 0.91055,0.199384 1.05721,0.786042 -0.3535,1.868011 -1.41071,1.081968 -4.36329,2.72229 -9.71083,5.08442 -5.34754,2.36213 -13.08985,5.44593 -20.30744,8.16894 -7.2176,2.72301 -13.9101,5.08508 -19.57581,7.05015 -5.66571,1.96508 -10.34413,3.54652 -16.57749,5.31813 -6.23337,1.77162 -14.041291,3.74 -20.177716,5.20952 -6.136426,1.46953 -10.726365,2.46734 -14.368047,3.05564 -3.641681,0.5883 -6.528331,0.78969 -8.025782,0.68681 -1.497452,-0.10288 -1.718049,-0.6176 0.906496,-2.29149 2.624545,-1.67389 8.070408,-4.56085 11.67923,-6.43087 3.608822,-1.87001 5.38037,-2.72298 12.565193,-5.38035 z"
           style="fill:#000000;fill-opacity:0.117647;stroke:none;stroke-width:1px;stroke-linecap:butt;stroke-linejoin:miter;stroke-opacity:1" />
        <path
           inkscape:original-d="m 95.665408,147.82864 c 3.084864,-1.90181 6.168732,-3.80461 9.251592,-5.70842 4.06916,-1.44254 8.13715,-2.88603 12.20423,-4.33054 8.00608,-2.36115 16.01085,-4.72322 24.01477,-7.08632 5.70955,-1.37693 11.54909,-2.7548 17.32213,-4.13369 1.31331,0.001 2.62557,0.001 3.93685,0 -0.39269,0.854 -0.78637,1.70696 -1.18105,2.55895 -3.34539,1.37892 -6.69164,2.88802 -10.03896,4.33053 -6.62616,2.42877 -13.25306,4.85645 -19.88109,7.28317 -4.78892,1.44454 -9.70989,2.88802 -14.56633,4.33053 -3.67347,1.05085 -7.34779,2.10065 -11.02318,3.14948 -2.75485,0.19785 -5.51059,0.39468 -8.26738,0.59053 -0.589539,-0.32708 -1.180055,-0.65514 -1.771582,-0.98422 z"
           inkscape:path-effect="#path-effect939"
           id="path937"
           d="m 97.503339,147.04152 c 1.246212,-1.11586 4.330071,-3.01867 7.906231,-4.69186 3.57616,-1.67319 7.64415,-3.11667 13.68077,-5.0195 6.03662,-1.90282 14.04139,-4.26489 20.89993,-6.12748 6.85854,-1.8626 12.69454,-3.25529 16.23786,-3.94415 3.54331,-0.68886 4.85557,-0.68886 5.31426,-0.26214 0.45869,0.42672 0.065,1.27969 -1.79274,2.42248 -1.85776,1.14279 -5.22788,2.59656 -10.21458,4.5322 -4.9867,1.93565 -11.6136,4.36332 -17.3247,6.29 -5.71109,1.92667 -10.62673,3.38808 -14.89168,4.63476 -4.26495,1.24668 -7.93927,2.29649 -11.15426,2.91988 -3.21499,0.6234 -5.97073,0.82024 -7.643758,0.75499 -1.673032,-0.0653 -2.263545,-0.39332 -1.017333,-1.50918 z"
           style="fill:#000000;fill-opacity:0.117647;stroke:none;stroke-width:1px;stroke-linecap:butt;stroke-linejoin:miter;stroke-opacity:1" />
        <path
           inkscape:original-d="m 114.56228,150.19075 c 6.16873,-1.37689 12.33646,-2.75479 18.50318,-4.13369 5.18462,-2.49238 10.36804,-4.98567 15.55055,-7.48001 0.32908,10e-4 0.65715,10e-4 0.98422,0 -0.98324,0.91962 -1.96743,1.8382 -2.95264,2.7558 -4.00154,1.90384 -8.00392,3.80662 -12.00739,5.70843 -4.19838,0.91961 -8.39761,1.83819 -12.59791,2.75579 -2.09869,0.39469 -4.1983,0.78837 -6.29896,1.18105 -0.39269,-0.26146 -0.78637,-0.52391 -1.18105,-0.78737 z"
           inkscape:path-effect="#path-effect943"
           id="path941"
           d="m 117.84393,149.63333 c 2.88682,-0.82064 9.05455,-2.19854 14.73006,-4.1342 5.67551,-1.93566 10.85893,-4.42895 13.61501,-5.67551 2.75609,-1.24657 3.08416,-1.24657 2.75559,-0.78728 -0.32856,0.4593 -1.31275,1.37788 -3.80593,2.78852 -2.49318,1.41063 -6.49556,3.3134 -10.59633,4.72414 -4.10076,1.41073 -8.29999,2.32931 -11.44947,2.98546 -3.14948,0.65615 -5.24909,1.04983 -6.49558,1.1159 -1.24649,0.0661 -1.64016,-0.19638 1.24665,-1.01703 z"
           style="fill:#000000;fill-opacity:0.117647;stroke:none;stroke-width:1px;stroke-linecap:butt;stroke-linejoin:miter;stroke-opacity:1" />
      </g>
    </g>
  </g>
</svg>
